<?xml version="1.0" encoding="utf-8" standalone="no"?><!DOCTYPE svg PUBLIC "-//W3C//DTD SVG 20010904//EN" "http://www.w3.org/TR/2001/REC-SVG-20010904/DTD/svg10.dtd"><svg xmlns="http://www.w3.org/2000/svg" width="425" height="294" xmlns:xlink="http://www.w3.org/1999/xlink"><source><![CDATA[client-->gateway: chci adresu
gateway->client: 0xAAA

client-->gateway: nastavil sem si adresu 0XAAA
gateway->client: OK]]></source><desc></desc><defs><marker viewBox="0 0 5 5" markerWidth="5" markerHeight="5" orient="auto" refX="5" refY="2.5" id="markerArrowBlock"><path d="M 0 0 L 5 2.5 L 0 5 z"></path></marker><marker viewBox="0 0 9.6 16" markerWidth="4" markerHeight="16" orient="auto" refX="9.6" refY="8" id="markerArrowOpen"><path d="M 9.6,8 1.92,16 0,13.7 5.76,8 0,2.286 1.92,0 9.6,8 z"></path></marker></defs><g class="title"></g><g class="actor"><rect x="10" y="20" width="80" height="39" style="stroke-width: 2;" stroke="#000000" fill="#ffffff"></rect><text x="20" y="45" style="font-size: 16px; font-family: Andale Mono, monospace;"><tspan x="20">client</tspan></text></g><g class="actor"><rect x="10" y="235" width="80" height="39" style="stroke-width: 2;" stroke="#000000" fill="#ffffff"></rect><text x="20" y="260" style="font-size: 16px; font-family: Andale Mono, monospace;"><tspan x="20">client</tspan></text></g><line x1="50" x2="50" y1="59" y2="235" style="stroke-width: 2;" stroke="#000000" fill="none"></line><g class="actor"><rect x="305" y="20" width="90" height="39" style="stroke-width: 2;" stroke="#000000" fill="#ffffff"></rect><text x="315" y="45" style="font-size: 16px; font-family: Andale Mono, monospace;"><tspan x="315">gateway</tspan></text></g><g class="actor"><rect x="305" y="235" width="90" height="39" style="stroke-width: 2;" stroke="#000000" fill="#ffffff"></rect><text x="315" y="260" style="font-size: 16px; font-family: Andale Mono, monospace;"><tspan x="315">gateway</tspan></text></g><line x1="350" x2="350" y1="59" y2="235" style="stroke-width: 2;" stroke="#000000" fill="none"></line><g class="signal"><text x="145" y="89.5" style="font-size: 16px; font-family: Andale Mono, monospace;"><tspan x="145">chci adresu</tspan></text><line x1="50" x2="350" y1="98" y2="98" style="stroke-width: 2; stroke-dasharray: 6, 2; marker-end: url(&quot;#markerArrowBlock&quot;);" stroke="#000000" fill="none"></line></g><g class="signal"><text x="175" y="128.5" style="font-size: 16px; font-family: Andale Mono, monospace;"><tspan x="175">0xAAA</tspan></text><line x1="350" x2="50" y1="137" y2="137" style="stroke-width: 2; marker-end: url(&quot;#markerArrowBlock&quot;);" stroke="#000000" fill="none"></line></g><g class="signal"><text x="60" y="167.5" style="font-size: 16px; font-family: Andale Mono, monospace;"><tspan x="60">nastavil sem si adresu 0XAAA</tspan></text><line x1="50" x2="350" y1="176" y2="176" style="stroke-width: 2; stroke-dasharray: 6, 2; marker-end: url(&quot;#markerArrowBlock&quot;);" stroke="#000000" fill="none"></line></g><g class="signal"><text x="190" y="206.5" style="font-size: 16px; font-family: Andale Mono, monospace;"><tspan x="190">OK</tspan></text><line x1="350" x2="50" y1="215" y2="215" style="stroke-width: 2; marker-end: url(&quot;#markerArrowBlock&quot;);" stroke="#000000" fill="none"></line></g></svg>